<svg width="24" height="24" viewBox="0 0 24 24" fill="none" xmlns="http://www.w3.org/2000/svg">
<path d="M13.56 9.00001H6.44999C5.64999 9.00001 5.00999 9.58001 5.00999 10.3V19.7C5.00999 20.42 5.65999 21 6.44999 21H13.56C14.36 21 15 20.42 15 19.7V10.3C15 9.58001 14.35 9.00001 13.56 9.00001ZM9.99999 16.5C9.16999 16.5 8.49999 15.83 8.49999 15C8.49999 14.17 9.16999 13.5 9.99999 13.5C10.83 13.5 11.5 14.17 11.5 15C11.5 15.83 10.83 16.5 9.99999 16.5Z" fill="#0F3CC9"/>
<path d="M14.9 1.98001C14.35 1.98001 13.9 2.43001 13.9 2.98001C13.9 3.53001 14.35 3.98001 14.9 3.98001C17.69 3.98001 19.96 6.25001 19.96 9.04001C19.96 9.59001 20.41 10.04 20.96 10.04C21.51 10.04 21.96 9.59001 21.96 9.04001C21.96 5.14001 18.79 1.98001 14.9 1.98001Z" fill="#0F3CC9"/>
<path d="M14.5 5.04001C13.95 5.04001 13.5 5.49001 13.5 6.04001C13.5 6.59001 13.95 7.04001 14.5 7.04001C15.88 7.04001 17 8.16001 17 9.54001C17 10.09 17.45 10.54 18 10.54C18.55 10.54 19 10.09 19 9.54001C19 7.06001 16.98 5.04001 14.5 5.04001Z" fill="#0F3CC9"/>
</svg>
