<svg width="24" height="24" viewBox="0 0 24 24" fill="none" xmlns="http://www.w3.org/2000/svg">
<path d="M19 4.00001H15C14.06 4.00001 13.16 4.45001 12.6 5.20001L10.6 7.87001C10.21 8.39001 10 9.02001 10 9.67001V18C10 19.65 11.35 21 13 21H19C20.65 21 22 19.65 22 18V7.00001C22 5.35001 20.65 4.00001 19 4.00001ZM12 11H14V14H12V11ZM16 19H13C12.45 19 12 18.55 12 18V16H16V19ZM20 18C20 18.55 19.55 19 19 19H18V16H20V18ZM20 14H16V11H20V14ZM8 9.19001C8 9.13001 8.01 9.07001 8.02 9.00001H8C7.06 9.00001 6.16 9.45001 5.6 10.2L3.6 12.87C3.21 13.39 3 14.02 3 14.67V18C3 19.65 4.35 21 6 21H9.03C8.4 20.16 8 19.13 8 18V9.19001V9.19001ZM9.71 4.30001L7.71 2.30001C7.32 1.91001 6.69 1.91001 6.3 2.30001C5.91 2.69001 5.91 3.32001 6.3 3.71001L6.59 4.00001H3C2.45 4.00001 2 4.45001 2 5.00001C2 5.55001 2.45 6.00001 3 6.00001H6.59L6.3 6.29001C5.91 6.68001 5.91 7.31001 6.3 7.70001C6.5 7.90001 6.75 7.99001 7.01 7.99001C7.27 7.99001 7.52 7.89001 7.72 7.70001L9.72 5.70001C10.11 5.31001 10.11 4.68001 9.72 4.29001L9.71 4.30001Z" fill="#0F3CC9"/>
</svg>
